<?xml version="1.0" standalone="no"?><!DOCTYPE svg PUBLIC "-//W3C//DTD SVG 1.1//EN" "http://www.w3.org/Graphics/SVG/1.1/DTD/svg11.dtd"><svg t="1604996002920" class="icon" viewBox="0 0 1024 1024" version="1.1" xmlns="http://www.w3.org/2000/svg" p-id="2935" xmlns:xlink="http://www.w3.org/1999/xlink" width="280" height="280"><defs><style type="text/css"></style></defs><path d="M721.92 395.946667c-17.066667 0-32.426667 13.653333-32.426667 32.426666v40.96c-1.706667 18.773333-17.066667 32.426667-35.84 32.426667s-37.546667-13.653333-37.546666-34.133333v-122.88c0-15.36-13.653333-32.426667-32.426667-32.426667-17.066667 0-32.426667 13.653333-32.426667 32.426667v76.8c0 18.773333-17.066667 35.84-37.546666 35.84-18.773333 0-35.84-13.653333-37.546667-34.133334v-100.693333c0-15.36-13.653333-32.426667-32.426667-32.426667-17.066667 0-32.426667 13.653333-32.426666 32.426667v141.653333c0 18.773333-17.066667 35.84-37.546667 35.84-18.773333 0-35.84-13.653333-35.84-35.84V426.666667c0-15.36-13.653333-32.426667-32.426667-32.426667S273.066667 409.6 273.066667 426.666667v157.013333c0 15.36 13.653333 32.426667 32.426666 32.426667s32.426667-13.653333 32.426667-32.426667v-15.36c0-18.773333 17.066667-35.84 37.546667-35.84 18.773333 0 37.546667 15.36 37.546666 35.84v59.733333c0 15.36 13.653333 32.426667 32.426667 32.426667s32.426667-13.653333 32.426667-32.426667v-102.4c0-18.773333 17.066667-34.133333 37.546666-34.133333 18.773333 0 37.546667 15.36 37.546667 35.84v122.88c0 15.36 13.653333 32.426667 32.426667 32.426667 17.066667 0 32.426667-13.653333 32.426666-32.426667v-80.213333c0-18.773333 13.653333-34.133333 37.546667-34.133334 18.773333 0 35.84 13.653333 35.84 32.426667v15.36c0 15.36 13.653333 32.426667 32.426667 32.426667 17.066667 0 32.426667-13.653333 32.426666-32.426667V426.666667c-3.413333-17.066667-18.773333-30.72-34.133333-30.72z m-484.693333 63.146666c-17.066667 0-32.426667 13.653333-32.426667 32.426667v32.426667c0 15.36 13.653333 32.426667 32.426667 32.426666 17.066667 0 32.426667-13.653333 32.426666-32.426666v-32.426667c-3.413333-18.773333-18.773333-32.426667-32.426666-32.426667z m566.613333 0c-17.066667 0-32.426667 13.653333-32.426667 32.426667v32.426667c0 15.36 13.653333 32.426667 32.426667 32.426666 18.773333 0 32.426667-13.653333 32.426667-32.426666v-32.426667c0-18.773333-13.653333-32.426667-32.426667-32.426667z" p-id="2936" fill="#4285f4"></path><path d="M936.96 651.946667V368.64c30.72-13.653333 49.493333-44.373333 49.493333-76.8 0-46.08-37.546667-83.626667-85.333333-83.626667-17.066667 0-35.84 5.12-49.493333 17.066667L597.333333 85.333333v-1.706666C597.333333 37.546667 559.786667 0 512 0s-85.333333 37.546667-85.333333 83.626667V85.333333l-254.293334 145.066667c-17.066667-11.946667-34.133333-17.066667-52.906666-17.066667-47.786667-1.706667-85.333333 34.133333-85.333334 81.92 0 34.133333 22.186667 64.853333 54.613334 78.506667v281.6c-34.133333 8.533333-54.613333 39.253333-54.613334 71.68 0 46.08 37.546667 83.626667 85.333334 83.626667 17.066667 0 35.84-5.12 49.493333-13.653334L426.666667 940.373333c0 46.08 37.546667 83.626667 85.333333 83.626667s85.333333-37.546667 85.333333-83.626667l256-143.36c13.653333 8.533333 30.72 13.653333 47.786667 13.653334 47.786667 0 85.333333-37.546667 85.333333-83.626667 1.706667-30.72-18.773333-61.44-49.493333-75.093333z m-54.613333-3.413334c-10.24 1.706667-18.773333 6.826667-29.013334 11.946667l-64.853333-34.133333c-1.706667 0-6.826667-1.706667-10.24-1.706667-13.653333 0-29.013333 11.946667-29.013333 27.306667 0 8.533333 5.12 17.066667 11.946666 20.48l58.026667 32.426666c-1.706667 8.533333-5.12 17.066667-5.12 27.306667s1.706667 17.066667 5.12 27.306667l-240.64 134.826666c-10.24-11.946667-22.186667-20.48-40.96-30.72v-69.973333c-1.706667-13.653333-11.946667-25.6-29.013333-25.6s-25.6 8.533333-29.013334 25.6v66.56c-17.066667 5.12-34.133333 13.653333-42.666666 30.72l-244.053334-136.533333c1.706667-8.533333 5.12-17.066667 5.12-25.6 0-6.826667 0-11.946667-1.706666-17.066667l58.026666-34.133333 1.706667-1.706667c6.826667-5.12 11.946667-11.946667 11.946667-20.48 0-13.653333-11.946667-27.306667-29.013334-27.306667-5.12 0-10.24 1.706667-13.653333 5.12l-58.026667 34.133334c-10.24-6.826667-18.773333-11.946667-34.133333-17.066667V373.76c11.946667-5.12 22.186667-8.533333 30.72-17.066667l59.733333 32.426667c1.706667 1.706667 6.826667 1.706667 10.24 1.706667 13.653333 0 29.013333-11.946667 29.013334-27.306667 0-6.826667-5.12-13.653333-10.24-20.48l-52.906667-32.426667c1.706667-5.12 1.706667-11.946667 1.706667-17.066666 0-6.826667 0-13.653333-1.706667-20.48L443.733333 136.533333c10.24 11.946667 25.6 20.48 40.96 27.306667v69.973333c0 13.653333 11.946667 27.306667 29.013334 27.306667s29.013333-11.946667 29.013333-27.306667v-68.266666c13.653333-5.12 29.013333-13.653333 37.546667-27.306667L820.906667 273.066667c-1.706667 8.533333-1.706667 17.066667-1.706667 20.48v11.946666l-58.026667 34.133334c-6.826667 5.12-11.946667 11.946667-11.946666 20.48 0 13.653333 11.946667 27.306667 29.013333 27.306666 5.12 0 6.826667 0 11.946667-1.706666l54.613333-32.426667c10.24 8.533333 25.6 17.066667 40.96 20.48V648.533333h-3.413333z" p-id="2937" fill="#4285f4"></path></svg>